<?xml version="1.0" encoding="utf-8"?>
<!-- Generator: Adobe Illustrator 16.0.0, SVG Export Plug-In . SVG Version: 6.00 Build 0)  -->
<!DOCTYPE svg PUBLIC "-//W3C//DTD SVG 1.1//EN" "http://www.w3.org/Graphics/SVG/1.1/DTD/svg11.dtd">
<svg version="1.1" id="Layer_1" xmlns="http://www.w3.org/2000/svg" xmlns:xlink="http://www.w3.org/1999/xlink" x="0px" y="0px"
	 width="32px" height="32px" viewBox="0 0 32 32" enable-background="new 0 0 32 32" xml:space="preserve">
<path d="M8.902,15.912c-0.198-0.136-0.348-0.207-0.458-0.316c-2.501-2.494-4.998-4.992-7.496-7.49
	C-0.319,6.84-0.315,5.394,0.955,4.123c1.08-1.082,2.158-2.165,3.241-3.245C5.368-0.29,6.867-0.29,8.042,0.883
	c2.527,2.524,5.053,5.051,7.575,7.578c0.103,0.102,0.177,0.23,0.283,0.371c0.165-0.153,0.271-0.247,0.368-0.345
	c2.517-2.516,5.032-5.032,7.548-7.547c1.252-1.251,2.711-1.252,3.961-0.006c1.091,1.088,2.184,2.177,3.272,3.268
	c1.15,1.157,1.157,2.663,0.007,3.818c-2.531,2.539-5.066,5.072-7.604,7.604c-0.104,0.1-0.235,0.171-0.374,0.269
	c0.168,0.176,0.261,0.282,0.357,0.38c2.518,2.517,5.031,5.034,7.549,7.551c1.248,1.246,1.248,2.703,0,3.955
	c-1.072,1.072-2.144,2.144-3.217,3.213c-1.238,1.23-2.701,1.23-3.93,0.004c-2.518-2.518-5.035-5.032-7.549-7.551
	c-0.103-0.1-0.177-0.229-0.358-0.461c-0.135,0.207-0.193,0.35-0.296,0.451c-2.511,2.519-5.028,5.032-7.546,7.547
	c-1.249,1.25-2.7,1.244-3.957-0.01c-1.044-1.045-2.05-2.127-3.141-3.121C-0.264,26.715-0.282,24.965,1,23.732
	c2.535-2.439,4.988-4.963,7.477-7.45C8.57,16.189,8.674,16.108,8.902,15.912z"/>
</svg>
